<svg xmlns="http://www.w3.org/2000/svg" width="222" height="149" fill="none" viewBox="0 0 222 149"><rect width="134" height="110.2" x="12" y="14" fill="#fff" stroke="#000" stroke-width="2"/><path stroke="#000" stroke-width="2" d="M42 39.6279L50 48M42 39.6279V28M42 39.6279L30 41.4884"/><path stroke="#000" stroke-width="2" d="M29 67V89.6087M94 107H29V89.6087M29 89.6087H42.3333L55.6667 75.6957H69L75.6667 68.7391H82.3333L89 75.6957H105.667L114 68.7391H119"/><rect width="59" height="25" x="69" y="27" fill="#fff" stroke="#000" stroke-width="2"/><rect width="3" height="10" x="76" y="39" fill="#000"/><rect width="3" height="15" x="83" y="34" fill="#000"/><rect width="3" height="12" x="90" y="37" fill="#000"/><rect width="3" height="16" x="97" y="33" fill="#000"/><rect width="3" height="16" x="104" y="33" fill="#000"/><rect width="3" height="9" x="111" y="40" fill="#000"/><rect width="3" height="9" x="118" y="40" fill="#000"/><mask id="mask0" width="27" height="27" x="28" y="26" mask-type="alpha" maskUnits="userSpaceOnUse"><rect width="25" height="25" x="29" y="27" fill="#fff" stroke="#000" stroke-width="2" rx="12.5"/></mask><g mask="url(#mask0)"><rect width="25" height="25" x="29" y="27" stroke="#000" stroke-width="2" rx="12.5"/></g><rect width="38" height="38" x="32" y="102" fill="#fff" stroke="#F2C811" stroke-width="2"/><rect width="38" height="38" x="80" y="102" fill="#fff" stroke="#DAB50F" stroke-width="2"/><rect width="38" height="38" x="128" y="102" fill="#fff" stroke="#A98C0C" stroke-width="2"/><rect width="38" height="38" x="176" y="102" fill="#fff" stroke="#7A6816" stroke-width="2"/><path stroke="#F2C811" stroke-linecap="round" stroke-linejoin="round" stroke-width="2" d="M10.4482 2L10.9659 3.93185"/><path stroke="#C8C8C8" stroke-linecap="round" stroke-linejoin="round" stroke-width="2" d="M2 6.17285L6.33013 8.67285"/><path stroke="#F2C811" stroke-linecap="round" stroke-linejoin="round" stroke-width="2" d="M220.572 91.4507L214.777 89.8978"/><path stroke="#F2C811" stroke-linecap="round" stroke-linejoin="round" stroke-width="2" d="M218.451 87.7764L216.898 93.5719"/><path stroke="#C8C8C8" stroke-linecap="round" stroke-linejoin="round" stroke-width="2" d="M209 92.1211V94.1211"/></svg>